<?xml version="1.0" encoding="UTF-8"?>
<svg version="1.1" xmlns="http://www.w3.org/2000/svg" width="512" height="512">
<path d="M0 0 C14.85 0 29.7 0 45 0 C42.08303012 1.45848494 39.47540515 2.55397578 36.4375 3.625 C20.77771767 9.87507513 11.37301727 22.05029283 4.79833984 37.00634766 C2.98517265 41.53427526 1.87058334 46.21179163 1 51 C0.67 51 0.34 51 0 51 C0 34.17 0 17.34 0 0 Z " fill="#000000" transform="translate(0,0)"/>
<path d="M0 0 C14.85 0 29.7 0 45 0 C45 16.83 45 33.66 45 51 C44.67 51 44.34 51 44 51 C43.79697266 49.94425781 43.79697266 49.94425781 43.58984375 48.8671875 C39.9758784 32.29055603 31.42358196 17.36100021 17 8 C11.53111754 4.84616594 6.13947938 2.46813637 0 1 C0 0.67 0 0.34 0 0 Z " fill="#000000" transform="translate(467,0)"/>
<path d="M0 0 C0.68380717 -0.00175304 1.36761433 -0.00350607 2.07214293 -0.00531223 C4.35624259 -0.00995244 6.64027805 -0.00751186 8.9243803 -0.00507832 C10.58146504 -0.00694728 12.23854933 -0.00924833 13.89563292 -0.01194364 C18.44394905 -0.01805739 22.99224679 -0.01792854 27.54056609 -0.01674926 C32.44797685 -0.01654515 37.35538171 -0.02206501 42.26278973 -0.02680683 C51.8752002 -0.03511152 61.48760454 -0.03786159 71.1000183 -0.03841921 C78.91345894 -0.03889444 86.72689756 -0.04094952 94.54033756 -0.04411983 C116.69401134 -0.05292576 138.84768027 -0.05753928 161.0013558 -0.05678936 C162.19554297 -0.0567494 163.38973013 -0.05670945 164.62010479 -0.05666828 C166.41357307 -0.05660696 166.41357307 -0.05660696 168.24327304 -0.0565444 C187.62272703 -0.0561379 207.00216159 -0.06570855 226.38160995 -0.07980665 C246.28139961 -0.09416904 266.18117979 -0.10107691 286.08097476 -0.10021287 C297.25276172 -0.09988086 308.42452832 -0.10262962 319.59631062 -0.11339092 C329.10763279 -0.12249409 338.61892537 -0.12467266 348.13025001 -0.1178815 C352.98207165 -0.11461544 357.83383649 -0.11456278 362.68565273 -0.12323475 C367.13003052 -0.13109673 371.57430643 -0.12967137 376.01868173 -0.12095062 C377.62362006 -0.11941498 379.22856598 -0.12123421 380.83349536 -0.12681069 C394.6003792 -0.17146432 406.25901177 0.30508958 416.89622784 9.94894695 C428.65814562 22.52554303 430.04763969 37.92213338 430.02212811 54.33536053 C430.02439366 55.42025178 430.02665922 56.50514304 430.02899343 57.62290978 C430.03529143 61.23518059 430.03450677 64.84741347 430.03367901 68.45968914 C430.03667311 71.05910573 430.04007622 73.65852187 430.04385662 76.25793743 C430.05213441 82.57257908 430.05491015 88.88721139 430.055469 95.20185801 C430.05594551 100.33880048 430.05800697 105.47573989 430.06116962 110.61268139 C430.06996822 125.20246473 430.07459022 139.79224075 430.07383915 154.38202676 C430.07377922 155.55983976 430.07377922 155.55983976 430.07371807 156.76144695 C430.07367719 157.54762312 430.07363631 158.33379929 430.07359419 159.14379898 C430.07318791 171.87924167 430.08275511 184.61465478 430.09685644 197.35008892 C430.11124799 210.45183899 430.1181251 223.55357464 430.11726266 236.6553328 C430.11693166 244.00088486 430.11963615 251.34640589 430.13044071 258.6919508 C430.14054182 265.60308047 430.14018206 272.51414379 430.13292408 279.42527676 C430.13188166 281.95434572 430.13422066 284.48341882 430.14028454 287.01248074 C430.23146534 327.69241891 430.23146534 327.69241891 415.26732159 343.8825407 C406.52200494 352.25036167 395.44154314 352.69840856 383.98851681 352.61448956 C381.53272033 352.59702164 379.07807941 352.60484159 376.62227154 352.61874676 C371.41923744 352.64389989 366.21648532 352.63860363 361.01341534 352.62863445 C354.95810597 352.61708357 348.90336587 352.61825536 342.84812832 352.65269756 C340.4343187 352.6597728 338.02142155 352.64314965 335.60768414 352.6255827 C334.12720024 352.63128973 332.64672007 352.6381066 331.16624737 352.64621258 C329.87816174 352.6430302 328.5900761 352.63984783 327.26295757 352.63656902 C323.30291965 353.21400964 321.66177905 354.28985497 318.88841534 357.12863445 C317.6236503 360.92292955 317.71145078 364.50041995 317.68309307 368.45553875 C317.67319347 369.30453747 317.66329388 370.15353619 317.65309429 371.02826214 C317.6214895 373.83643073 317.59672586 376.64461623 317.57200909 379.4528532 C317.55143868 381.3991315 317.53044219 383.34540533 317.50903606 385.29167461 C317.45382435 390.41592073 317.40441107 395.5402071 317.35618877 400.66452312 C317.30596721 405.89283109 317.25028456 411.12108054 317.19505596 416.34933758 C317.08748539 426.60905323 316.98603793 436.86881966 316.88841534 447.12863445 C311.37639651 441.67080912 311.37639651 441.67080912 309.41575909 438.73800945 C308.9977 438.12022625 308.57964092 437.50244305 308.14891338 436.86593914 C307.71232403 436.21012859 307.27573467 435.55431805 306.82591534 434.87863445 C305.85294753 433.44046383 304.87895523 432.00298588 303.90404034 430.56613445 C303.40581768 429.83007977 302.90759502 429.09402508 302.39427471 428.3356657 C299.99604459 424.82074996 297.53743552 421.34939018 295.07591534 417.87863445 C290.66000861 411.64254595 286.26649237 405.39134198 281.88841534 399.12863445 C277.04458316 392.20196107 272.19183353 385.28182882 267.30662823 378.38424969 C264.71361473 374.72232049 262.13641816 371.05048014 259.57982159 367.36300945 C259.03535381 366.58143475 258.49088604 365.79986004 257.92991924 364.99460125 C256.88489333 363.49386769 255.84398744 361.99025411 254.80784893 360.48337078 C254.33814678 359.81072186 253.86844463 359.13807293 253.38450909 358.4450407 C252.97386211 357.85150799 252.56321514 357.25797527 252.14012432 356.64645672 C250.3550318 354.4818536 248.68109012 353.22678698 245.86776161 352.8784281 C245.08808305 352.87831807 244.30840448 352.87820804 243.5050993 352.87809467 C242.15301593 352.87059663 242.15301593 352.87059663 240.77361774 352.86294711 C239.28634709 352.86994193 239.28634709 352.86994193 237.76903057 352.87707806 C236.1903674 352.87262285 236.1903674 352.87262285 234.57981205 352.86807764 C231.03548984 352.86040857 227.49133194 352.8669437 223.94700909 352.87326336 C221.41272144 352.87051475 218.87843465 352.86683565 216.34414959 352.86229229 C210.87665264 352.85416558 205.40920048 352.85185329 199.94169903 352.85423946 C192.02459592 352.85733575 184.10756439 352.8457021 176.19047928 352.82968967 C163.33019484 352.80371048 150.46991034 352.7837025 137.60960674 352.77023602 C136.83961944 352.76942565 136.06963213 352.76861528 135.27631187 352.76778035 C124.36292037 352.75657243 113.44953395 352.75128103 102.53613746 352.74839322 C101.76857568 352.74818923 101.00101391 352.74798525 100.21019268 352.74777508 C99.44356843 352.74757514 98.67694418 352.74737521 97.88708889 352.74716921 C85.08499162 352.74343105 72.28297169 352.72430704 59.48091316 352.69268072 C51.58912025 352.67379959 43.69752604 352.66778395 35.80571681 352.6784979 C29.7489588 352.68558717 23.69242633 352.67199206 17.63569355 352.65087986 C15.15697833 352.64556494 12.67823754 352.64704261 10.19953251 352.65591526 C6.80724895 352.6670758 3.41589642 352.65355774 0.02366924 352.63415813 C-0.94999875 352.64328279 -1.92366674 352.65240745 -2.92683983 352.66180861 C-13.73221674 352.54213598 -22.14562301 349.12290441 -29.88502216 341.6169157 C-41.19342328 328.97928147 -42.27051294 314.14464768 -42.24529743 297.92190838 C-42.24756299 296.83701712 -42.24982854 295.75212587 -42.25216275 294.63435912 C-42.25846076 291.02208831 -42.2576761 287.40985543 -42.25684834 283.79757977 C-42.25984244 281.19816318 -42.26324555 278.59874704 -42.26702595 275.99933147 C-42.27530373 269.68468983 -42.27807948 263.37005752 -42.27863833 257.05541089 C-42.27911484 251.91846842 -42.2811763 246.78152902 -42.28433895 241.64458752 C-42.29313755 227.05480417 -42.29775955 212.46502816 -42.29700848 197.87524214 C-42.29696852 197.09003348 -42.29692856 196.30482482 -42.2968874 195.49582195 C-42.29684652 194.70964578 -42.29680564 193.92346962 -42.29676352 193.11346993 C-42.29635723 180.37802723 -42.30592444 167.64261412 -42.32002576 154.90717998 C-42.33441732 141.80542992 -42.34129443 128.70369426 -42.34043199 115.6019361 C-42.34010099 108.25638404 -42.34280547 100.91086301 -42.35361004 93.56531811 C-42.36371115 86.65418844 -42.36335139 79.74312511 -42.35609341 72.83199215 C-42.35505099 70.30292318 -42.35738999 67.77385008 -42.36345387 65.24478817 C-42.4552598 24.28594832 -42.4552598 24.28594832 -29.11158466 10.12863445 C-20.44440497 2.31452363 -11.54085723 0.00670155 0 0 Z M66.01341534 81.44113445 C64.65008023 84.69799054 64.38794415 86.62533614 64.88841534 90.12863445 C67.16429764 94.35345192 67.16429764 94.35345192 70.88841534 97.12863445 C72.24373339 97.22540687 73.60365574 97.26139137 74.9624176 97.26564884 C75.82023152 97.27072338 76.67804543 97.27579793 77.56185371 97.28102624 C78.50979071 97.281524 79.45772771 97.28202176 80.43439007 97.2825346 C81.43712497 97.28691685 82.43985987 97.29129911 83.47298068 97.29581416 C86.85470618 97.30923772 90.2364056 97.31538896 93.61815166 97.32150555 C96.03394979 97.32940362 98.44974673 97.33767239 100.86554241 97.34628582 C108.13063905 97.37027045 115.39573747 97.38543761 122.66085985 97.39834589 C124.71221852 97.40205707 126.7635765 97.40603035 128.81493449 97.41009855 C141.54890568 97.43533298 154.28287792 97.45738981 167.01686859 97.4698267 C169.9669708 97.47275647 172.91707298 97.47571813 175.8671751 97.47873211 C176.96704812 97.47985119 176.96704812 97.47985119 178.0891408 97.48099287 C189.97118459 97.49365043 201.85307887 97.52687844 213.73505274 97.56853394 C225.92910503 97.61093375 238.12308074 97.63451941 250.31720656 97.63974726 C257.16580595 97.64316349 264.01417164 97.65494332 270.86269855 97.68785 C277.30344517 97.71874634 283.74389568 97.72427832 290.1847086 97.71246624 C292.55147221 97.71224467 294.91825421 97.72061826 297.28495312 97.73812008 C300.51096212 97.76068209 303.73547493 97.75257607 306.96148968 97.73663616 C307.90273451 97.75051825 308.84397935 97.76440034 309.81374675 97.77870309 C314.37068956 97.7230496 316.26240148 97.62261897 319.94634819 94.71563435 C323.07003565 90.55461492 323.08351053 88.37336094 322.46654034 83.32394695 C322.00265258 80.84718044 322.00265258 80.84718044 319.51341534 78.62863445 C316.14636779 76.70460728 313.60344173 76.00376981 309.78786278 75.99720669 C308.53043094 75.99144497 308.53043094 75.99144497 307.24759644 75.98556685 C306.32660009 75.98643334 305.40560375 75.98729982 304.45669842 75.98819256 C303.47831597 75.98522144 302.49993353 75.98225031 301.49190313 75.97918916 C298.19852819 75.97048592 294.90518954 75.96899254 291.61180401 75.96750164 C289.25659386 75.96287464 286.90138447 75.95785014 284.54617596 75.95245647 C277.46835991 75.93794895 270.39055164 75.9319469 263.31272337 75.92706096 C259.97972578 75.92448354 256.64672952 75.92069332 253.3137331 75.91694164 C242.23467409 75.90474907 231.15561701 75.89444969 220.07655144 75.89106655 C219.36743947 75.89084699 218.65832751 75.89062742 217.9277273 75.8904012 C216.86151161 75.89007378 216.86151161 75.89007378 215.77375621 75.88973975 C214.33337891 75.88929629 212.89300162 75.88884972 211.45262432 75.88840008 C210.73814714 75.88817865 210.02366996 75.88795722 209.28754196 75.88772908 C197.71020811 75.88378098 186.1329372 75.86632658 174.55562767 75.84304056 C162.67003078 75.81932737 150.78446547 75.80686472 138.89884454 75.80569863 C132.22523948 75.80478186 125.55170524 75.79871065 118.87812138 75.78087902 C112.60154282 75.76443475 106.3251201 75.76222516 100.04852772 75.77101803 C97.74347168 75.77179034 95.43840739 75.76742024 93.13337231 75.75755978 C89.98908898 75.74489689 86.84536228 75.75068654 83.70108318 75.76114178 C82.786779 75.75308537 81.87247482 75.74502897 80.93046445 75.73672843 C74.85746592 75.78402732 70.06324097 76.4463495 66.01341534 81.44113445 Z M68.88841534 174.12863445 C67.27300661 177.35945191 67.29878784 180.63622543 67.88841534 184.12863445 C69.84498731 187.65650746 71.99696597 189.83148466 75.88841534 191.12863445 C77.25811881 191.22012802 78.63183141 191.25771082 80.00458527 191.26006222 C81.2672422 191.26582394 81.2672422 191.26582394 82.55540735 191.27170205 C83.48029464 191.27083557 84.40518194 191.26996909 85.35809612 191.26907635 C86.83179512 191.27353303 86.83179512 191.27353303 88.33526582 191.27807975 C91.64246025 191.28678314 94.94961855 191.28827638 98.25682354 191.28976727 C100.62188577 191.29439426 102.98694726 191.29941875 105.35200787 191.30481243 C111.78797692 191.3179494 118.22393904 191.32442043 124.65991902 191.32882309 C128.67837389 191.33158551 132.69682634 191.33582286 136.71527958 191.34032726 C147.84066174 191.35251985 158.96604197 191.36281922 170.09143066 191.36620235 C170.80351024 191.36642192 171.51558982 191.36664149 172.24924756 191.36686771 C172.96303297 191.36708598 173.67681838 191.36730426 174.41223365 191.36752915 C175.85863992 191.36797262 177.30504618 191.36841918 178.75145245 191.36886883 C179.82765414 191.36920097 179.82765414 191.36920097 180.92559727 191.36953983 C192.55142995 191.37348793 204.17719995 191.39094237 215.80300841 191.41422835 C227.73832584 191.43794135 239.67361181 191.45040418 251.60895318 191.45157027 C258.31051157 191.45248706 265.01197591 191.45855848 271.71351337 191.47638988 C278.01635656 191.49283388 284.31904456 191.49504388 290.62190151 191.48625088 C292.93663288 191.48547855 295.25137246 191.48984885 297.56608295 191.49970913 C300.7235027 191.51237155 303.8803681 191.50658261 307.03778362 191.49612713 C308.41507632 191.50821174 308.41507632 191.50821174 309.82019311 191.52054048 C314.9298422 191.4809077 318.46536268 190.97752879 322.88841534 188.12863445 C325.6944822 184.96049445 325.88841534 183.40727251 325.88841534 179.12863445 C325.6039917 176.1895902 324.75495646 174.94971064 322.95680523 172.53899002 C318.64096664 169.1487085 315.32620707 169.43309389 309.98167706 169.50044537 C308.97637888 169.49335098 307.9710807 169.48625659 306.93531895 169.47894722 C303.56252613 169.46132766 300.19087962 169.47949311 296.81810284 169.49753094 C294.40185807 169.49239367 291.98561704 169.48511385 289.56938457 169.4758482 C283.6854317 169.45922856 277.80178195 169.46598506 271.9178586 169.48393642 C267.13586457 169.49796258 262.35396068 169.50185521 257.57194805 169.49849415 C256.55102135 169.49777798 256.55102135 169.49777798 255.50946987 169.49704735 C254.12680417 169.49602102 252.7441385 169.49496566 251.36147285 169.49388159 C239.13536119 169.48531412 226.90940986 169.50199094 214.68333721 169.53171062 C202.81998745 169.5605482 190.95686866 169.56763168 179.09349346 169.55221844 C166.17483108 169.53545712 153.25627835 169.53142132 140.33761311 169.5489288 C138.96003629 169.55077318 137.58245946 169.55260791 136.20488262 169.55443287 C135.52709 169.55534496 134.84929737 169.55625705 134.15096557 169.55719678 C129.37477035 169.56280262 124.59862866 169.55949456 119.82243633 169.55288792 C113.39393505 169.54434875 106.96569194 169.55731247 100.53724194 169.58473682 C98.17533896 169.59163431 95.81340492 169.59170412 93.4515028 169.58452129 C90.23234531 169.57585822 87.01422427 169.59173044 83.79515362 169.61397076 C82.85595514 169.60572999 81.91675667 169.59748922 80.94909763 169.58899873 C75.67097575 169.65650501 72.66918761 170.05699887 68.88841534 174.12863445 Z M69.88841534 266.12863445 C67.32209017 269.55040134 67.52406483 272.97503866 67.88841534 277.12863445 C69.59156743 280.96072667 71.04849525 282.56396556 74.88841534 284.12863445 C76.96695566 284.4275352 76.96695566 284.4275352 79.17448521 284.38869667 C80.45580399 284.39929506 80.45580399 284.39929506 81.763008 284.41010755 C82.6966553 284.40769247 83.6303026 284.40527738 84.59224224 284.40278912 C86.08559886 284.41064413 86.08559886 284.41064413 87.6091243 284.41865784 C90.95470303 284.43369407 94.30012931 284.43436379 97.64573956 284.43503094 C100.04050741 284.44264993 102.43527282 284.45107697 104.83003521 284.46025372 C111.34239114 284.48223 117.85471305 284.49102335 124.36710024 284.49608016 C128.43363938 284.4993376 132.50016906 284.50586032 136.56670284 284.51308155 C147.82680424 284.53264551 159.08689685 284.54905126 170.34701633 284.55195808 C171.06746362 284.55214565 171.78791091 284.55233322 172.53018994 284.55252648 C173.99069126 284.55289273 175.45119259 284.55325643 176.91169392 284.55361759 C177.63668288 284.5538004 178.36167185 284.55398321 179.10863018 284.55417156 C179.83450432 284.55435211 180.56037845 284.55453266 181.30824877 284.55471868 C193.07310136 284.55826123 204.83777102 284.58528943 216.60256015 284.62266945 C228.68255813 284.66074378 240.76246532 284.68011549 252.84252465 284.6804176 C259.62460488 284.68100232 266.40646681 284.68950383 273.18849087 284.71841526 C279.56612546 284.74452304 285.94332709 284.74684151 292.32099056 284.73075962 C294.66314161 284.7289394 297.00531713 284.7356872 299.34741497 284.75157833 C302.54233374 284.77193616 305.73572303 284.76154651 308.93062115 284.74336529 C309.859807 284.75656526 310.78899286 284.76976522 311.74633586 284.78336519 C316.09817105 284.72670993 318.99274096 284.50236043 322.45389271 281.71912003 C325.38900556 278.59597489 325.84388549 277.15837907 326.06029034 273.0544157 C325.72508675 269.29861188 323.86621338 267.17558707 321.38204384 264.51572514 C317.45707358 262.33244496 313.59632473 262.71603612 309.17785931 262.74768353 C308.18158266 262.74300355 307.18530601 262.73832358 306.15883917 262.73350179 C302.81083251 262.72150824 299.46323188 262.73102626 296.11522198 262.74045086 C293.7188318 262.73638708 291.3224435 262.73104629 288.92605877 262.72452068 C283.0868282 262.71224172 277.24770359 262.71406604 271.40847594 262.72275861 C266.66270407 262.72953113 261.91696462 262.73045375 257.17118931 262.72718716 C256.49598674 262.72672746 255.82078417 262.72626776 255.12512092 262.72579413 C253.7534877 262.72483496 252.38185449 262.72386232 251.0102213 262.72287636 C238.14440779 262.71431911 225.27865838 262.72416149 212.41285538 262.74027745 C201.37318244 262.75367791 190.33360414 262.75135546 179.29393291 262.73752117 C166.47601193 262.72146601 153.65814716 262.71514632 140.84021753 262.72435796 C139.47329741 262.72531361 138.10637727 262.72625673 136.73945713 262.72718716 C136.06689774 262.72764998 135.39433834 262.72811281 134.70139836 262.72858966 C129.96178843 262.73117997 125.22221416 262.72680761 120.48260975 262.7197485 C114.10258451 262.71109378 107.72273829 262.71707359 101.34273243 262.73443127 C98.99856139 262.73840425 96.65437533 262.73724826 94.31021023 262.73064327 C91.11525384 262.72246988 87.92087444 262.73269897 84.72595501 262.74768353 C83.79385631 262.74099136 82.86175761 262.73429919 81.9014135 262.72740424 C77.07485865 262.77144165 73.80230241 262.97401274 69.88841534 266.12863445 Z " fill="#000000" transform="translate(62.11158466339111,19.871365547180176)"/>
<path d="M0 0 C0.33 0 0.66 0 1 0 C1.20753906 0.93199219 1.41507812 1.86398437 1.62890625 2.82421875 C5.53146633 18.97330626 12.92310063 32.92478533 26.83984375 42.69140625 C37.36325904 49.06635041 47.38527318 51.34245494 59.56170654 51.15061951 C61.10306554 51.13919948 61.10306554 51.13919948 62.6755631 51.12754875 C66.09994263 51.10018469 69.5240036 51.05854501 72.94824219 51.01733398 C75.4111942 50.99551491 77.8741568 50.97486417 80.33712769 50.95529175 C84.2684566 50.92362207 88.1997689 50.89135066 92.13104963 50.85420215 C101.87550389 50.76251529 111.61975395 50.7050946 121.36456299 50.66822815 C122.07098705 50.66549379 122.77741111 50.66275942 123.50524196 50.6599422 C129.31937234 50.63751111 135.13350751 50.61643688 140.9476437 50.59557359 C146.17538876 50.5766897 151.40312657 50.55644941 156.63085938 50.53442383 C157.37599475 50.53129954 158.12113012 50.52817526 158.88884535 50.52495629 C170.9596079 50.47246486 183.02910326 50.35869913 195.09919605 50.2241733 C207.51509909 50.0873849 219.92991702 50.02341254 232.34657788 50.02462631 C239.99348471 50.02296883 247.63554981 49.9644346 255.28131846 49.83138955 C261.14857081 49.73523164 267.01309783 49.73989173 272.88107681 49.78113937 C275.27854981 49.78233356 277.67630087 49.75122515 280.07284927 49.68463707 C297.66876247 49.22193303 297.66876247 49.22193303 303.20006657 53.83473325 C307.15853541 58.31166887 309.99726806 63.26971419 312.69709635 68.57455742 C314.77223522 72.43756768 317.34603876 75.90970134 319.9375 79.4375 C320.92798108 80.83046965 321.91650906 82.22483188 322.90234375 83.62109375 C323.40362793 84.32862793 323.90491211 85.03616211 324.42138672 85.76513672 C327.29509997 89.83348981 330.14642722 93.91750778 333 98 C337.3189485 104.17691569 341.64892459 110.34567141 346 116.5 C350.35107602 122.65432945 354.68089642 128.82319207 359 135 C363.50813579 141.44650354 368.0258366 147.88603453 372.5625 154.3125 C373.27696289 155.32473633 373.27696289 155.32473633 374.00585938 156.35742188 C374.9015684 157.62517505 375.79817396 158.8922954 376.69580078 160.15869141 C377.59257257 161.42478141 378.48662999 162.692797 379.37841797 163.96240234 C381.14328126 166.46235666 382.83165781 168.83165781 385 171 C257.95 171 130.9 171 0 171 C0 114.57 0 58.14 0 0 Z " fill="#000000" transform="translate(0,341)"/>
<path d="M0 0 C0.33 0 0.66 0 1 0 C1 56.43 1 112.86 1 171 C-37.94 171 -76.88 171 -117 171 C-115.35 169.02 -113.7 167.04 -112 165 C-111.26840804 162.52177787 -111.26840804 162.52177787 -111.36076355 159.98855591 C-111.34547607 159.02950851 -111.3301886 158.07046112 -111.31443787 157.08235168 C-111.32737633 155.52975899 -111.32737633 155.52975899 -111.34057617 153.94580078 C-111.33009247 152.84277115 -111.31960876 151.73974152 -111.30880737 150.60328674 C-111.28006703 146.96700884 -111.28634823 143.3316836 -111.29296875 139.6953125 C-111.27985322 137.17038785 -111.26454945 134.64547369 -111.24714661 132.12057495 C-111.21134088 126.16022567 -111.19756114 120.20008476 -111.1945222 114.23965251 C-111.18982676 107.45114119 -111.15688805 100.66285774 -111.12162435 93.87444711 C-111.0497465 79.91632597 -111.01318218 65.95829119 -111 52 C-110.23737854 51.99413376 -109.47475708 51.98826752 -108.68902588 51.98222351 C-101.4522091 51.92397931 -94.21572426 51.85172565 -86.97920609 51.76428509 C-83.26008581 51.71982543 -79.54106895 51.68051808 -75.82177734 51.65356445 C-72.22296395 51.62728468 -68.62455391 51.58671525 -65.02599335 51.53681374 C-63.00572419 51.51235554 -60.98529818 51.50216466 -58.96490479 51.49235535 C-42.41688243 51.23247442 -29.40521032 46.90026271 -17.28515625 35.4140625 C-7.70330302 25.29169447 -2.89119997 13.46876083 0 0 Z " fill="#000000" transform="translate(511,341)"/>
</svg>
